<svg width="63" height="63" viewBox="0 0 63 63" fill="none" xmlns="http://www.w3.org/2000/svg">
<g clip-path="url(#clip0_118307_2)">
<rect x="-1" y="-1" width="64" height="64" rx="4" fill="#F5F7FB"/>
<path d="M31.4597 45.768C28.4037 45.768 25.7317 45.128 23.4437 43.848C21.1717 42.552 19.4037 40.648 18.1397 38.136C16.8757 35.608 16.2437 32.496 16.2437 28.8C16.2437 25.008 16.8757 21.88 18.1397 19.416C19.4037 16.936 21.1717 15.096 23.4437 13.896C25.7317 12.68 28.4037 12.072 31.4597 12.072C34.5477 12.072 37.2357 12.704 39.5237 13.968C41.8277 15.232 43.6117 17.104 44.8757 19.584C46.1397 22.064 46.7717 25.136 46.7717 28.8C46.7717 32.56 46.1397 35.704 44.8757 38.232C43.6117 40.744 41.8277 42.632 39.5237 43.896C37.2357 45.144 34.5477 45.768 31.4597 45.768ZM41.5637 54.288C39.8037 54.288 38.1397 53.8 36.5717 52.824C35.0037 51.864 33.6917 50.536 32.6357 48.84L29.3237 43.584L35.0357 40.368L37.8197 45.048C38.2037 45.672 38.7077 46.104 39.3317 46.344C39.9717 46.6 40.6357 46.744 41.3237 46.776C42.0757 46.776 42.8357 46.688 43.6037 46.512C44.3717 46.336 45.1637 46.104 45.9797 45.816V53.472C45.2117 53.776 44.4677 53.984 43.7477 54.096C43.0437 54.224 42.3157 54.288 41.5637 54.288ZM31.4597 38.88C33.6997 38.88 35.4917 38 36.8357 36.24C38.1797 34.464 38.8517 31.968 38.8517 28.752C38.8517 25.728 38.1797 23.344 36.8357 21.6C35.4917 19.84 33.6997 18.96 31.4597 18.96C29.2837 18.96 27.5237 19.84 26.1797 21.6C24.8357 23.344 24.1637 25.744 24.1637 28.8C24.1637 31.984 24.8357 34.464 26.1797 36.24C27.5237 38 29.2837 38.88 31.4597 38.88Z" fill="#4D5B9E"/>
</g>
<defs>
<clipPath id="clip0_118307_2">
<rect width="63" height="63" fill="white"/>
</clipPath>
</defs>
</svg>
